<svg width="151" height="34" viewBox="0 0 151 34" fill="none" xmlns="http://www.w3.org/2000/svg">
<path d="M38.5976 7.2353H52.7153V10.0871H41.9294V15.6494H51.5859V18.4729H41.9294V24.1482H53.0541V27H38.5976V7.2353ZM65.8565 18.5294C65.8565 17.3435 65.5459 16.4212 64.9247 15.7624C64.3035 15.0847 63.4376 14.7459 62.3271 14.7459C61.0282 14.7835 60.0024 15.2635 59.2494 16.1859C58.5153 17.1082 58.1482 18.2471 58.1482 19.6024H57.2447C57.2447 17.7576 57.4988 16.2706 58.0071 15.1412C58.5341 14.0118 59.2682 13.1929 60.2094 12.6847C61.1694 12.1576 62.2988 11.8941 63.5976 11.8941C64.7459 11.8941 65.7247 12.1294 66.5341 12.6C67.3623 13.0706 67.9929 13.7388 68.4259 14.6047C68.8776 15.4518 69.1035 16.4776 69.1035 17.6824V27H65.8565V18.5294ZM76.7835 18.5294C76.7835 17.3435 76.4635 16.4212 75.8235 15.7624C75.2023 15.0847 74.3365 14.7459 73.2259 14.7459C71.9459 14.7835 70.9388 15.2635 70.2047 16.1859C69.4706 17.1082 69.1035 18.2471 69.1035 19.6024H68.1718C68.1718 17.7576 68.4259 16.2706 68.9341 15.1412C69.4612 14.0118 70.1953 13.1929 71.1365 12.6847C72.0965 12.1576 73.2259 11.8941 74.5247 11.8941C75.6729 11.8941 76.6518 12.1294 77.4612 12.6C78.2894 13.0706 78.92 13.7388 79.3529 14.6047C79.8047 15.4518 80.0306 16.4776 80.0306 17.6824V27H76.7835V18.5294ZM54.9294 12.0071H58.1482V27H54.9294V12.0071ZM91.0179 11.8941C92.4485 11.8941 93.7003 12.2141 94.7732 12.8541C95.8462 13.4941 96.6838 14.3882 97.2862 15.5365C97.8885 16.6847 98.1897 18.0212 98.1897 19.5459C98.1897 21.0329 97.8885 22.3506 97.2862 23.4988C96.7026 24.6282 95.8744 25.5129 94.8015 26.1529C93.7473 26.7929 92.505 27.1129 91.0744 27.1129C89.7003 27.1129 88.5238 26.8118 87.545 26.2094C86.585 25.6071 85.8509 24.7412 85.3426 23.6118C84.8344 22.4635 84.5803 21.1082 84.5803 19.5459C84.5803 17.9271 84.8344 16.5529 85.3426 15.4235C85.8509 14.2753 86.585 13.4 87.545 12.7976C88.5238 12.1953 89.6815 11.8941 91.0179 11.8941ZM90.3403 14.4635C89.4556 14.4635 88.665 14.68 87.9685 15.1129C87.2721 15.5459 86.7262 16.1388 86.3309 16.8918C85.9544 17.6259 85.7662 18.4824 85.7662 19.4612C85.7662 20.44 85.9544 21.3153 86.3309 22.0871C86.7262 22.84 87.2721 23.4329 87.9685 23.8659C88.665 24.28 89.4556 24.4871 90.3403 24.4871C91.2438 24.4871 92.0344 24.2706 92.7121 23.8376C93.4085 23.4047 93.945 22.8118 94.3215 22.0588C94.7168 21.3059 94.9144 20.44 94.9144 19.4612C94.9144 18.5012 94.7168 17.6447 94.3215 16.8918C93.945 16.1388 93.4085 15.5459 92.7121 15.1129C92.0344 14.68 91.2438 14.4635 90.3403 14.4635ZM82.5191 6.04941H85.7662V27H82.5191V6.04941ZM108.011 14.8306C106.939 14.7741 106.007 14.9624 105.216 15.3953C104.444 15.8094 103.842 16.3929 103.409 17.1459C102.995 17.8988 102.788 18.7647 102.788 19.7435L101.884 19.6306C101.884 17.9553 102.129 16.5435 102.619 15.3953C103.108 14.2471 103.814 13.3812 104.736 12.7976C105.659 12.1953 106.75 11.8941 108.011 11.8941V14.8306ZM99.5691 12.0071H102.816V27H99.5691V12.0071ZM112.988 20.3082C111.933 20.3082 111.152 20.4682 110.644 20.7882C110.136 21.1082 109.882 21.6353 109.882 22.3694C109.882 23.0659 110.136 23.6212 110.644 24.0353C111.171 24.4494 111.886 24.6565 112.79 24.6565C113.599 24.6565 114.324 24.5153 114.964 24.2329C115.604 23.9506 116.112 23.5741 116.489 23.1035C116.865 22.6141 117.063 22.0682 117.082 21.4659L117.703 24.2047C117.232 25.1835 116.517 25.9176 115.557 26.4071C114.597 26.8965 113.449 27.1412 112.112 27.1412C111.039 27.1412 110.108 26.9341 109.317 26.52C108.526 26.1059 107.915 25.5506 107.482 24.8541C107.049 24.1388 106.832 23.3482 106.832 22.4824C106.832 21.1271 107.322 20.0447 108.301 19.2353C109.298 18.4259 110.701 18.0118 112.508 17.9929H117.477V20.3082H112.988ZM117.053 17.4847C117.053 16.5059 116.752 15.7435 116.15 15.1976C115.548 14.6518 114.653 14.3788 113.468 14.3788C112.752 14.3788 112.018 14.5106 111.265 14.7741C110.531 15.0376 109.788 15.4235 109.035 15.9318L107.708 13.8424C108.404 13.4094 109.063 13.0518 109.684 12.7694C110.305 12.4871 110.964 12.2706 111.661 12.12C112.376 11.9694 113.213 11.8941 114.173 11.8941C116.112 11.8941 117.599 12.3647 118.635 13.3059C119.689 14.2282 120.225 15.5082 120.244 17.1459L120.272 27H117.082L117.053 17.4847ZM133.207 16.2988C132.68 15.7529 132.059 15.3294 131.343 15.0282C130.628 14.7271 129.819 14.5765 128.915 14.5765C128.049 14.5765 127.278 14.7835 126.6 15.1976C125.922 15.6118 125.395 16.1953 125.019 16.9482C124.642 17.6824 124.454 18.5388 124.454 19.5176C124.454 20.4965 124.642 21.3624 125.019 22.1153C125.395 22.8494 125.922 23.4329 126.6 23.8659C127.278 24.28 128.049 24.4871 128.915 24.4871C129.856 24.4871 130.703 24.3365 131.456 24.0353C132.209 23.7153 132.84 23.2541 133.348 22.6518L135.155 24.4306C134.478 25.2776 133.593 25.9365 132.501 26.4071C131.428 26.8776 130.186 27.1129 128.774 27.1129C127.287 27.1129 125.969 26.7929 124.821 26.1529C123.692 25.5129 122.807 24.6282 122.167 23.4988C121.527 22.3506 121.207 21.0235 121.207 19.5176C121.207 18.0118 121.527 16.6941 122.167 15.5647C122.807 14.4165 123.692 13.5224 124.821 12.8824C125.969 12.2235 127.287 11.8941 128.774 11.8941C130.129 11.8941 131.325 12.1012 132.36 12.5153C133.414 12.9106 134.289 13.4753 134.986 14.2094L133.207 16.2988ZM146.34 18.4165C146.303 17.5694 146.105 16.8541 145.747 16.2706C145.408 15.6682 144.928 15.2071 144.307 14.8871C143.686 14.5482 142.971 14.3788 142.161 14.3788C141.258 14.3788 140.467 14.5859 139.79 15C139.131 15.4141 138.613 15.9976 138.237 16.7506C137.86 17.4847 137.672 18.3506 137.672 19.3482C137.672 20.4212 137.87 21.3529 138.265 22.1435C138.679 22.9341 139.244 23.5459 139.959 23.9788C140.693 24.4118 141.531 24.6282 142.472 24.6282C144.147 24.6282 145.559 24.0353 146.707 22.8494L148.43 24.5718C147.696 25.3812 146.801 26.0118 145.747 26.4635C144.693 26.8965 143.517 27.1129 142.218 27.1129C140.674 27.1129 139.328 26.7929 138.18 26.1529C137.032 25.5129 136.138 24.6282 135.498 23.4988C134.858 22.3506 134.538 21.0235 134.538 19.5176C134.538 18.0118 134.858 16.6941 135.498 15.5647C136.138 14.4165 137.032 13.5224 138.18 12.8824C139.328 12.2424 140.646 11.9129 142.133 11.8941C143.903 11.8941 145.324 12.2612 146.397 12.9953C147.47 13.7106 148.232 14.7271 148.684 16.0447C149.136 17.3624 149.296 18.9247 149.164 20.7318H137.164V18.4165H146.34Z" fill="black"/>
<circle cx="9.5" cy="16.5" r="9.5" fill="#3461FF"/>
<path d="M34.5192 15.6362C35.1807 16.0221 35.1807 16.9779 34.5192 17.3638L19.5039 26.1227C18.8372 26.5116 18 26.0308 18 25.259L18 7.74104C18 6.96925 18.8372 6.48837 19.5039 6.87726L27 11.25L34.5192 15.6362Z" fill="#3461FF"/>
</svg>
